<?xml version="1.0" encoding="UTF-8" standalone="no"?>
<svg
   xmlns:dc="http://purl.org/dc/elements/1.1/"
   xmlns:cc="http://creativecommons.org/ns#"
   xmlns:rdf="http://www.w3.org/1999/02/22-rdf-syntax-ns#"
   xmlns:svg="http://www.w3.org/2000/svg"
   xmlns="http://www.w3.org/2000/svg"
   viewBox="0 0 163.33333 160"
   height="160"
   width="163.33333"
   xml:space="preserve"
   id="svg2"
   version="1.1"><metadata
     id="metadata8"><rdf:RDF><cc:Work
         rdf:about=""><dc:format>image/svg+xml</dc:format><dc:type
           rdf:resource="http://purl.org/dc/dcmitype/StillImage" /></cc:Work></rdf:RDF></metadata><defs
     id="defs6"><clipPath
       id="clipPath18"
       clipPathUnits="userSpaceOnUse"><path
         id="path16"
         d="M 0,120 H 122.5 V 0 H 0 Z" /></clipPath></defs><g
     transform="matrix(1.3333333,0,0,-1.3333333,0,160)"
     id="g10"><g
       id="g12"><g
         clip-path="url(#clipPath18)"
         id="g14"><g
           transform="translate(115.8184,2.3965)"
           id="g20"><path
             id="path22"
             style="fill:#93673c;fill-opacity:1;fill-rule:nonzero;stroke:none"
             d="m 0,0 c 2.934,0 5.152,3.219 4.362,6.488 -4.435,18.354 -27.367,32.337 -54.99,32.337 -27.926,0 -51.058,-14.291 -55.13,-32.941 C -106.409,2.899 -104.457,0 -101.796,0 Z" /></g><g
           transform="translate(118.4434,101.1255)"
           id="g24"><path
             id="path26"
             style="fill:#49794d;fill-opacity:1;fill-rule:nonzero;stroke:none"
             d="M 0,0 C -4.949,7.657 -21.895,7.55 -37.847,-0.239 -53.799,-8.028 -62.718,-20.55 -57.768,-28.207 l 7.731,3.775 -1.032,8.616 5.99,-6.195 8.839,4.315 -2.776,7.364 6.656,-5.469 7.114,3.473 -1.837,9.423 7.657,-6.58 10.348,5.052 -5.308,6.529 8.757,-4.845 z" /></g><g
           transform="translate(58.3687,78.1694)"
           id="g28"><path
             id="path30"
             style="fill:#a68b71;fill-opacity:1;fill-rule:nonzero;stroke:none"
             d="m 0,0 -5.147,-51.492 c -0.101,-1.006 0.537,-1.939 1.51,-2.212 l 6.584,-1.842 c 1.256,-0.352 2.522,0.524 2.636,1.824 l 4.504,51.67 C 10.174,-1.054 9.54,-0.136 8.575,0.134 L 2.633,1.798 C 1.387,2.146 0.128,1.287 0,0" /></g><g
           transform="translate(64.8242,72.5137)"
           id="g32"><path
             id="path34"
             style="fill:#669f4e;fill-opacity:1;fill-rule:nonzero;stroke:none"
             d="M 0,0 C 6.354,6.913 -0.896,22.012 -16.195,33.726 -31.493,45.439 -49.046,49.331 -55.4,42.418 l 7.414,-5.677 9.06,3.726 -4.305,-7.366 8.476,-6.49 6.946,4.874 -3.225,-7.724 6.823,-5.223 9.609,4.707 -4.027,-8.981 9.923,-7.598 4.96,6.865 -1.652,-9.397 z" /></g><g
           transform="translate(119.0342,49.5044)"
           id="g36"><path
             id="path38"
             style="fill:#669f4e;fill-opacity:1;fill-rule:nonzero;stroke:none"
             d="m 0,0 c 3.77,7.157 -6.681,19.325 -23.341,27.178 -16.66,7.854 -33.221,8.419 -36.989,1.262 l 8.074,-3.806 7.014,4.781 -1.836,-7.222 9.23,-4.351 4.838,5.451 -0.785,-7.361 7.429,-3.503 7.238,5.739 -1.159,-8.604 10.807,-5.094 2.548,6.885 1.053,-8.584 z" /></g><g
           transform="translate(67.1572,72.4634)"
           id="g40"><path
             id="path42"
             style="fill:#49794d;fill-opacity:1;fill-rule:nonzero;stroke:none"
             d="M 0,0 C -1.412,8.607 -17.103,14.448 -35.047,13.045 -52.992,11.644 -66.394,3.53 -64.982,-5.077 l 8.696,0.679 2.602,8.095 2.976,-7.659 9.941,0.777 0.476,7.581 3.89,-7.24 8.002,0.625 2.191,9.101 4.356,-8.59 11.64,0.91 -2.208,7.719 6.087,-7.416 z" /></g></g></g></g></svg>