<?xml version="1.0" encoding="UTF-8" standalone="no"?>
<svg
   xmlns:dc="http://purl.org/dc/elements/1.1/"
   xmlns:cc="http://creativecommons.org/ns#"
   xmlns:rdf="http://www.w3.org/1999/02/22-rdf-syntax-ns#"
   xmlns:svg="http://www.w3.org/2000/svg"
   xmlns="http://www.w3.org/2000/svg"
   viewBox="0 0 207.62933 130.22227"
   height="130.22227"
   width="207.62933"
   xml:space="preserve"
   id="svg2"
   version="1.1"><metadata
     id="metadata8"><rdf:RDF><cc:Work
         rdf:about=""><dc:format>image/svg+xml</dc:format><dc:type
           rdf:resource="http://purl.org/dc/dcmitype/StillImage" /></cc:Work></rdf:RDF></metadata><defs
     id="defs6"><clipPath
       id="clipPath18"
       clipPathUnits="userSpaceOnUse"><path
         id="path16"
         d="M 0,97.667 H 155.722 V 0 H 0 Z" /></clipPath></defs><g
     transform="matrix(1.3333333,0,0,-1.3333333,0,130.22227)"
     id="g10"><g
       id="g12"><g
         clip-path="url(#clipPath18)"
         id="g14"><g
           transform="translate(45.9567,83.4806)"
           id="g20"><path
             id="path22"
             style="fill:#8fcdd6;fill-opacity:1;fill-rule:nonzero;stroke:none"
             d="m 0,0 c 8.667,9.97 26.175,16.131 43.727,3.299 24.518,-17.924 25.966,-17.849 32.972,-16.995 12.478,1.522 22.502,-11.813 26.402,-18.902 7.686,-13.969 2.512,-34.36 -29.751,-37.1 -42.791,-3.634 -31.653,-8.522 -49.001,-9.739 -10.098,-0.709 -50.524,8.218 -44.132,26.021 6.392,17.804 -20.583,16.764 -21.914,32.416 C -43.56,0.913 -4.957,-5.702 0,0" /></g><g
           transform="translate(45.9567,83.4806)"
           id="g24"><path
             id="path26"
             style="fill:none;stroke:#547b89;stroke-width:6;stroke-linecap:butt;stroke-linejoin:miter;stroke-miterlimit:10;stroke-dasharray:none;stroke-opacity:1"
             d="m 0,0 c 8.667,9.97 26.175,16.131 43.727,3.299 24.518,-17.924 25.966,-17.849 32.972,-16.995 12.478,1.522 22.502,-11.813 26.402,-18.902 7.686,-13.969 2.512,-34.36 -29.751,-37.1 -42.791,-3.634 -31.653,-8.522 -49.001,-9.739 -10.098,-0.709 -50.524,8.218 -44.132,26.021 6.392,17.804 -20.583,16.764 -21.914,32.416 C -43.56,0.913 -4.957,-5.702 0,0 Z" /></g></g></g></g></svg>