<?xml version="1.0" encoding="UTF-8" standalone="no"?>
<svg
   xmlns:dc="http://purl.org/dc/elements/1.1/"
   xmlns:cc="http://creativecommons.org/ns#"
   xmlns:rdf="http://www.w3.org/1999/02/22-rdf-syntax-ns#"
   xmlns:svg="http://www.w3.org/2000/svg"
   xmlns="http://www.w3.org/2000/svg"
   viewBox="0 0 200.444 117.11107"
   height="117.11107"
   width="200.444"
   xml:space="preserve"
   id="svg2"
   version="1.1"><metadata
     id="metadata8"><rdf:RDF><cc:Work
         rdf:about=""><dc:format>image/svg+xml</dc:format><dc:type
           rdf:resource="http://purl.org/dc/dcmitype/StillImage" /></cc:Work></rdf:RDF></metadata><defs
     id="defs6"><clipPath
       id="clipPath18"
       clipPathUnits="userSpaceOnUse"><path
         id="path16"
         d="M 0,87.833 H 150.333 V 0 H 0 Z" /></clipPath><clipPath
       id="clipPath30"
       clipPathUnits="userSpaceOnUse"><path
         id="path28"
         d="M 78.895,86.709 C 70.463,84.696 46.554,78.285 38.93,68.687 v 0 C 32.699,60.843 28.828,51.964 26.949,46.945 v 0 C 25.98,44.361 23.917,42.349 21.307,41.449 v 0 L 10.402,37.684 C 7.082,36.537 4.697,33.609 4.249,30.126 v 0 L 1.264,6.937 C 0.885,3.987 3.182,1.374 6.157,1.374 v 0 h 134.042 c 5.105,0 9.244,4.139 9.244,9.244 v 0 15.356 c 0,4.281 -2.939,8.002 -7.104,8.993 v 0 l -8.246,1.963 c -3.667,0.872 -6.435,3.883 -6.999,7.609 v 0 l -3.078,20.322 c -0.482,3.184 -2.588,5.889 -5.556,7.137 v 0 L 84.611,86.234 c -1.143,0.481 -2.361,0.725 -3.585,0.725 v 0 c -0.713,0 -1.428,-0.083 -2.131,-0.25" /></clipPath></defs><g
     transform="matrix(1.3333333,0,0,-1.3333333,0,117.11107)"
     id="g10"><g
       id="g12"><g
         clip-path="url(#clipPath18)"
         id="g14"><g
           transform="translate(140.1989,1.3743)"
           id="g20"><path
             id="path22"
             style="fill:#837e7b;fill-opacity:1;fill-rule:nonzero;stroke:none"
             d="M 0,0 C 5.105,0 9.244,4.139 9.244,9.244 V 24.6 c 0,4.281 -2.939,8.002 -7.103,8.993 l -8.247,1.963 c -3.666,0.872 -6.435,3.882 -6.999,7.609 l -3.078,20.322 c -0.482,3.184 -2.588,5.889 -5.556,7.137 L -55.588,84.86 c -1.808,0.761 -3.807,0.93 -5.716,0.474 -8.432,-2.012 -32.341,-8.423 -39.965,-18.021 -6.231,-7.845 -10.102,-16.723 -11.981,-21.742 -0.968,-2.584 -3.033,-4.597 -5.641,-5.497 l -10.906,-3.764 c -3.32,-1.147 -5.704,-4.076 -6.153,-7.559 L -138.934,5.562 C -139.314,2.612 -137.016,0 -134.042,0 Z" /></g></g></g><g
       id="g24"><g
         clip-path="url(#clipPath30)"
         id="g26"><g
           transform="translate(47.526,42.7679)"
           id="g32"><path
             id="path34"
             style="fill:#5d6165;fill-opacity:1;fill-rule:nonzero;stroke:none"
             d="M 0,0 26.061,5.151 55.539,0 62.963,-41.394 H -7.675 Z" /></g></g></g></g></svg>