<?xml version="1.0" encoding="UTF-8" standalone="no"?>
<svg
   xmlns:dc="http://purl.org/dc/elements/1.1/"
   xmlns:cc="http://creativecommons.org/ns#"
   xmlns:rdf="http://www.w3.org/1999/02/22-rdf-syntax-ns#"
   xmlns:svg="http://www.w3.org/2000/svg"
   xmlns="http://www.w3.org/2000/svg"
   viewBox="0 0 217.14667 186.33333"
   height="186.33333"
   width="217.14667"
   xml:space="preserve"
   id="svg2"
   version="1.1"><metadata
     id="metadata8"><rdf:RDF><cc:Work
         rdf:about=""><dc:format>image/svg+xml</dc:format><dc:type
           rdf:resource="http://purl.org/dc/dcmitype/StillImage" /></cc:Work></rdf:RDF></metadata><defs
     id="defs6"><clipPath
       id="clipPath18"
       clipPathUnits="userSpaceOnUse"><path
         id="path16"
         d="M 0,139.75 H 162.86 V 0 H 0 Z" /></clipPath><clipPath
       id="clipPath30"
       clipPathUnits="userSpaceOnUse"><path
         id="path28"
         d="M 63.053,80.567 C 96.834,44.212 89.76,6.729 89.76,6.729 v 0 h 15.849 C 114.173,51.254 66.446,83.31 66.446,83.31 v 0 z" /></clipPath><clipPath
       id="clipPath54"
       clipPathUnits="userSpaceOnUse"><path
         id="path52"
         d="M 0,139.75 H 162.86 V 0 H 0 Z" /></clipPath><clipPath
       id="clipPath74"
       clipPathUnits="userSpaceOnUse"><path
         id="path72"
         d="m 106.457,30.028 6.441,-6.068 C 133.423,38.777 126.3,70.074 126.3,70.074 v 0 l -2.43,0.184 c -0.188,-27.706 -17.413,-40.23 -17.413,-40.23" /></clipPath><clipPath
       id="clipPath98"
       clipPathUnits="userSpaceOnUse"><path
         id="path96"
         d="M 0,139.75 H 162.86 V 0 H 0 Z" /></clipPath></defs><g
     transform="matrix(1.3333333,0,0,-1.3333333,0,186.33333)"
     id="g10"><g
       id="g12"><g
         clip-path="url(#clipPath18)"
         id="g14"><g
           transform="translate(66.4464,83.3101)"
           id="g20"><path
             id="path22"
             style="fill:#a47448;fill-opacity:1;fill-rule:nonzero;stroke:none"
             d="m 0,0 c 0,0 47.727,-32.056 39.163,-76.581 h -15.85 c 0,0 7.074,37.483 -26.707,73.838 z" /></g></g></g><g
       id="g24"><g
         clip-path="url(#clipPath30)"
         id="g26"><g
           transform="translate(87.901,80.3462)"
           id="g32"><path
             id="path34"
             style="fill:#905c4c;fill-opacity:1;fill-rule:nonzero;stroke:none"
             d="m 0,0 -24.848,-14.346 1.287,-2.23 24.848,14.346 z" /></g><g
           transform="translate(97.69,65.3872)"
           id="g36"><path
             id="path38"
             style="fill:#905c4c;fill-opacity:1;fill-rule:nonzero;stroke:none"
             d="m 0,0 -24.848,-14.346 1.288,-2.23 24.848,14.346 z" /></g><g
           transform="translate(108.7916,45.999)"
           id="g40"><path
             id="path42"
             style="fill:#905c4c;fill-opacity:1;fill-rule:nonzero;stroke:none"
             d="m 0,0 -27.714,-7.426 0.666,-2.487 27.714,7.426 z" /></g><g
           transform="translate(112.5601,27.2334)"
           id="g44"><path
             id="path46"
             style="fill:#905c4c;fill-opacity:1;fill-rule:nonzero;stroke:none"
             d="m 0,0 -27.715,-7.427 0.667,-2.486 27.714,7.426 z" /></g></g></g><g
       id="g48"><g
         clip-path="url(#clipPath54)"
         id="g50"><g
           transform="translate(48.8834,100.4702)"
           id="g56"><path
             id="path58"
             style="fill:#49794d;fill-opacity:1;fill-rule:nonzero;stroke:none"
             d="m 0,0 c 14.316,-2.277 -30.729,16.704 -43.687,11.283 -12.958,-5.42 8.499,14.113 17.428,16.483 8.93,2.369 26.659,2.658 38.537,-23.433 0,0 5.063,36.167 28.005,33.765 0,0 -5.585,-18.26 -11.558,-22.257 -5.974,-3.996 -7.449,-18.099 -5.97,-19.46 1.478,-1.36 29.483,29.077 37.216,2.519 l -30.32,-9.811 c 0,0 30.484,-1.882 27.356,-19.269 0,0 -42.452,24.312 -46.065,1.575 0,0 -14.15,-14.321 -7.328,-25.793 0,0 -18.965,7.668 -7.461,37.436 0,0 -13.732,2.415 -35.04,-19.814 0,0 -9.57,-2.401 2.038,16.364 0,0 14.094,24.031 36.849,20.412" /></g><g
           transform="translate(57.4014,95.5991)"
           id="g60"><path
             id="path62"
             style="fill:#82b16c;fill-opacity:1;fill-rule:nonzero;stroke:none"
             d="m 0,0 c 5.925,-1.754 -11.472,15.573 -17.248,14 -5.776,-1.574 4.373,5.494 8.278,6.001 3.905,0.508 10.422,-6.18 15.615,-18.105 0,0 -0.951,25.007 12.281,21.826 0,0 -10.672,-13.891 -7.857,-24.898 0.213,-0.83 13.713,9.737 18.673,0.259 L 10.093,-5.643 c 0,0 9.012,3.096 15.646,-7.844 0,0 -17.74,7.382 -23.487,0.934 0,0 -5.93,-5.513 -3.682,-10.739 0,0 -7.408,5.602 -0.899,17.545 0,0 -8.609,1.232 -18.844,-6.983 0,0 -4.178,-0.485 1.767,6.803 0,0 9.989,8.716 19.406,5.927" /></g><g
           transform="translate(126.2994,70.0742)"
           id="g64"><path
             id="path66"
             style="fill:#a47448;fill-opacity:1;fill-rule:nonzero;stroke:none"
             d="m 0,0 c 0,0 7.124,-31.298 -13.401,-46.114 l -6.441,6.067 c 0,0 17.224,12.525 17.412,40.232 z" /></g></g></g><g
       id="g68"><g
         clip-path="url(#clipPath74)"
         id="g70"><g
           transform="translate(133.8834,60.6567)"
           id="g76"><path
             id="path78"
             style="fill:#905c4c;fill-opacity:1;fill-rule:nonzero;stroke:none"
             d="M 0,0 -15.59,3.682 -15.921,2.283 -0.33,-1.399 Z" /></g><g
           transform="translate(132.1353,50.8296)"
           id="g80"><path
             id="path82"
             style="fill:#905c4c;fill-opacity:1;fill-rule:nonzero;stroke:none"
             d="M 0,0 -15.59,3.682 -15.921,2.283 -0.33,-1.399 Z" /></g><g
           transform="translate(129.2252,38.7002)"
           id="g84"><path
             id="path86"
             style="fill:#905c4c;fill-opacity:1;fill-rule:nonzero;stroke:none"
             d="M 0,0 -14.106,7.592 -14.787,6.326 -0.682,-1.266 Z" /></g><g
           transform="translate(123.5719,29.6318)"
           id="g88"><path
             id="path90"
             style="fill:#905c4c;fill-opacity:1;fill-rule:nonzero;stroke:none"
             d="M 0,0 -14.105,7.591 -14.787,6.325 -0.681,-1.267 Z" /></g></g></g><g
       id="g92"><g
         clip-path="url(#clipPath98)"
         id="g94"><g
           transform="translate(125.731,83.7715)"
           id="g100"><path
             id="path102"
             style="fill:#49794d;fill-opacity:1;fill-rule:nonzero;stroke:none"
             d="m 0,0 c 4.946,-6.406 -6.095,18.552 -13.436,21.31 -7.34,2.757 8.857,2.482 13.393,0.026 4.536,-2.455 11.853,-9.125 6.69,-24.275 0,0 15.905,12.76 24.308,3.001 0,0 -9.26,-5.283 -13.218,-4.621 -3.957,0.663 -9.955,-4.504 -9.875,-5.623 0.08,-1.118 23.114,0.531 16.089,-13.223 l -16.078,7.62 c 0,0 11.668,-12.435 3.74,-18.303 0,0 -7.945,26.131 -18.117,18.274 0,0 -11.233,-0.403 -12.852,-7.677 0,0 -4.772,10.376 11.298,18.07 0,0 -4.655,6.238 -21.825,5.361 0,0 -4.807,2.688 7.093,5.871 0,0 14.928,4.371 22.79,-5.811" /></g><g
           transform="translate(127.3277,78.5308)"
           id="g104"><path
             id="path106"
             style="fill:#82b16c;fill-opacity:1;fill-rule:nonzero;stroke:none"
             d="m 0,0 c 1.736,-2.981 1.3,10.721 -1.65,12.292 -2.951,1.572 3.879,0.56 5.661,-0.729 1.781,-1.289 1.87,-6.501 -0.584,-13.336 0,0 9.186,10.526 13.345,4.169 0,0 -9.654,-1.56 -12.724,-7.111 -0.231,-0.419 9.301,-1.293 7.688,-7.043 l -9.795,5.601 c 0,0 4.848,-2.192 3.356,-9.177 0,0 -4.384,9.791 -9.188,9.371 0,0 -4.52,0.029 -5.607,-2.955 0,0 -0.866,5.112 6.352,7.474 0,0 -3.028,3.797 -10.333,4.376 0,0 -1.882,1.402 3.323,2.089 0,0 7.396,-0.283 10.156,-5.021" /></g><g
           transform="translate(143.0474,2.8105)"
           id="g108"><path
             id="path110"
             style="fill:#92b14a;fill-opacity:1;fill-rule:nonzero;stroke:none"
             d="m 0,0 h -80.534 c -9.868,0 -17.941,8.073 -17.941,17.94 0,9.869 8.073,17.942 17.941,17.942 H 0 c 9.868,0 17.941,-8.073 17.941,-17.942 C 17.941,8.073 9.868,0 0,0" /></g></g></g></g></svg>