<?xml version="1.0" encoding="UTF-8" standalone="no"?>
<svg
   xmlns:dc="http://purl.org/dc/elements/1.1/"
   xmlns:cc="http://creativecommons.org/ns#"
   xmlns:rdf="http://www.w3.org/1999/02/22-rdf-syntax-ns#"
   xmlns:svg="http://www.w3.org/2000/svg"
   xmlns="http://www.w3.org/2000/svg"
   viewBox="0 0 1056 816"
   height="816"
   width="1056"
   xml:space="preserve"
   id="svg2"
   version="1.1"><metadata
     id="metadata8"><rdf:RDF><cc:Work
         rdf:about=""><dc:format>image/svg+xml</dc:format><dc:type
           rdf:resource="http://purl.org/dc/dcmitype/StillImage" /></cc:Work></rdf:RDF></metadata><defs
     id="defs6"><clipPath
       id="clipPath18"
       clipPathUnits="userSpaceOnUse"><path
         id="path16"
         d="M 0,612 H 792 V 0 H 0 Z" /></clipPath></defs><g
     transform="matrix(1.3333333,0,0,-1.3333333,0,816)"
     id="g10"><g
       id="g12"><g
         clip-path="url(#clipPath18)"
         id="g14"><g
           transform="translate(427.292,277.5293)"
           id="g20"><path
             id="path22"
             style="fill:#49794d;fill-opacity:1;fill-rule:nonzero;stroke:none"
             d="m 0,0 -89.944,-0.208 35.71,81.617 c 3.49,7.976 14.797,7.993 18.311,0.028 z" /></g><g
           transform="translate(454.2285,277.4863)"
           id="g24"><path
             id="path26"
             style="fill:#669f4e;fill-opacity:1;fill-rule:nonzero;stroke:none"
             d="m 0,0 -71.254,-0.165 26.88,61.435 c 3.304,7.551 14.01,7.567 17.336,0.026 z" /></g><g
           transform="translate(462.251,246.7041)"
           id="g28"><path
             id="path30"
             style="fill:#a38e6e;fill-opacity:1;fill-rule:nonzero;stroke:none"
             d="m 0,0 h -132.502 c -4.185,0 -7.61,3.425 -7.61,7.61 v 15.533 c 0,4.185 3.425,7.61 7.61,7.61 H 0 c 4.186,0 7.61,-3.425 7.61,-7.61 V 7.61 C 7.61,3.425 4.186,0 0,0" /></g></g></g></g></svg>